<svg width="30" height="30" viewBox="0 0 30 30" fill="none" xmlns="http://www.w3.org/2000/svg">
<path d="M20.4338 26.3705C19.5172 26.3637 18.6046 26.2487 17.715 26.0277C14.6429 25.2865 11.4795 23.4063 8.80876 20.7332C6.13806 18.0602 4.25544 14.8961 3.51423 11.827C2.73376 8.59845 3.2904 5.83634 5.07985 4.04689L5.59079 3.53595C6.05436 3.07331 6.68254 2.81348 7.33747 2.81348C7.9924 2.81348 8.62058 3.07331 9.08415 3.53595L12.0203 6.4715C12.4832 6.93491 12.7432 7.56315 12.7432 8.21818C12.7432 8.8732 12.4832 9.50144 12.0203 9.96486L10.2859 11.6986C11.1174 13.1576 12.2482 14.6178 13.5847 15.9543C14.9213 17.2908 16.3826 18.4223 17.841 19.2537L19.5748 17.5193C19.8041 17.2899 20.0764 17.1079 20.3761 16.9837C20.6758 16.8596 20.9971 16.7957 21.3215 16.7957C21.6459 16.7957 21.9671 16.8596 22.2668 16.9837C22.5665 17.1079 22.8388 17.2899 23.0681 17.5193L26.0037 20.4549C26.4667 20.9181 26.7268 21.5463 26.7268 22.2013C26.7268 22.8563 26.4667 23.4844 26.0037 23.9477L25.4922 24.4586C24.2306 25.7225 22.4845 26.3705 20.4338 26.3705ZM7.33747 4.57013C7.24392 4.56967 7.15121 4.58788 7.06479 4.62369C6.97836 4.65951 6.89995 4.71222 6.83415 4.77872L6.32263 5.28966C4.98259 6.6297 4.59118 8.80529 5.22048 11.4121C5.88669 14.1736 7.60173 17.043 10.0492 19.4899C12.4967 21.9367 15.3654 23.65 18.1275 24.3186C20.7349 24.9479 22.9093 24.5565 24.2494 23.2164L24.7603 22.7055C24.8938 22.5719 24.9688 22.3907 24.9688 22.2019C24.9688 22.013 24.8938 21.8319 24.7603 21.6983L21.8254 18.7627C21.6918 18.6292 21.5106 18.5542 21.3217 18.5542C21.1329 18.5542 20.9517 18.6292 20.8181 18.7627L18.6203 20.9606C18.4884 21.0925 18.318 21.1791 18.1336 21.2077C17.9493 21.2364 17.7606 21.2056 17.5949 21.1199C15.7931 20.1883 13.9767 18.8318 12.342 17.1971C10.7072 15.5623 9.35368 13.7471 8.4197 11.9453C8.33393 11.7797 8.30308 11.591 8.33163 11.4067C8.36018 11.2224 8.44663 11.0519 8.57849 10.9199L10.7769 8.72208C10.9104 8.58848 10.9854 8.40734 10.9854 8.21847C10.9854 8.0296 10.9104 7.84846 10.7769 7.71486L7.84138 4.77872C7.77537 4.71233 7.69684 4.65971 7.61034 4.6239C7.52384 4.58809 7.43109 4.56982 7.33747 4.57013Z" fill="#EC1354"/>
<path d="M21.3721 15.8043C21.139 15.8043 20.9154 15.7117 20.7506 15.5469C20.5858 15.382 20.4932 15.1585 20.4932 14.9254C20.4915 13.3835 19.8782 11.9053 18.788 10.8149C17.6978 9.72461 16.2196 9.11124 14.6777 9.10938C14.4446 9.10938 14.2211 9.01678 14.0563 8.85195C13.8914 8.68712 13.7988 8.46357 13.7988 8.23047C13.7988 7.99737 13.8914 7.77382 14.0563 7.60899C14.2211 7.44416 14.4446 7.35156 14.6777 7.35156C18.8537 7.35156 22.251 10.75 22.251 14.9254C22.251 15.1585 22.1584 15.382 21.9936 15.5469C21.8287 15.7117 21.6052 15.8043 21.3721 15.8043Z" fill="#EC1354"/>
<path d="M25.0869 15.8043C24.8538 15.8043 24.6303 15.7117 24.4654 15.5469C24.3006 15.382 24.208 15.1585 24.208 14.9254C24.208 9.67012 19.9307 5.39453 14.6777 5.39453C14.4446 5.39453 14.2211 5.30193 14.0563 5.13711C13.8914 4.97228 13.7988 4.74873 13.7988 4.51562C13.7988 4.28252 13.8914 4.05897 14.0563 3.89414C14.2211 3.72932 14.4446 3.63672 14.6777 3.63672C20.9021 3.63672 25.9658 8.70098 25.9658 14.9254C25.9658 15.1585 25.8732 15.382 25.7084 15.5469C25.5436 15.7117 25.32 15.8043 25.0869 15.8043Z" fill="#EC1354"/>
</svg>
