<svg width="28" height="28" viewBox="0 0 28 28" fill="none" xmlns="http://www.w3.org/2000/svg">
<path d="M26.5097 5.26953H1.50058H1.28369H0.757323H0.394745V22.6921H27.6172V5.26953H26.6756H26.5097ZM25.4208 6.35847L14.9039 16.8753C14.4244 17.3548 13.5874 17.3548 13.1079 16.8753L2.58946 6.35847H25.4208ZM1.48357 6.79225L8.55396 13.8616L1.48357 20.932V6.79225ZM2.35234 21.603L9.32439 14.632L12.338 17.6451C12.783 18.0907 13.3759 18.3364 14.0059 18.3364C14.636 18.3364 15.2288 18.0907 15.6738 17.6451L18.6874 14.6315L25.6589 21.603H2.35234ZM26.5283 20.9326L19.4579 13.8616L26.5283 6.79072V20.9326H26.5283Z" fill="#EC1354" stroke="#EC1354" stroke-width="0.5"/>
</svg>
