<svg width="44" height="44" viewBox="0 0 44 44" fill="none" xmlns="http://www.w3.org/2000/svg">
<path d="M27.5 41.7084H16.5C6.54502 41.7084 2.29169 37.4551 2.29169 27.5001V16.5001C2.29169 6.54508 6.54502 2.29175 16.5 2.29175H27.5C37.455 2.29175 41.7084 6.54508 41.7084 16.5001V27.5001C41.7084 37.4551 37.455 41.7084 27.5 41.7084ZM16.5 5.04175C8.04835 5.04175 5.04169 8.04841 5.04169 16.5001V27.5001C5.04169 35.9517 8.04835 38.9584 16.5 38.9584H27.5C35.9517 38.9584 38.9584 35.9517 38.9584 27.5001V16.5001C38.9584 8.04841 35.9517 5.04175 27.5 5.04175H16.5Z" fill="#EC1354"/>
<path d="M24.31 29.8467C23.9616 29.8467 23.6133 29.7184 23.3383 29.4434L16.8666 22.9717C16.335 22.44 16.335 21.56 16.8666 21.0284L23.3383 14.5567C23.87 14.025 24.75 14.025 25.2816 14.5567C25.8133 15.0884 25.8133 15.9684 25.2816 16.5L19.7816 22L25.2816 27.5C25.8133 28.0317 25.8133 28.9117 25.2816 29.4434C25.025 29.7184 24.6766 29.8467 24.31 29.8467Z" fill="#EC1354"/>
</svg>
