<svg width="24" height="24" viewBox="0 0 24 24" fill="none" xmlns="http://www.w3.org/2000/svg">
<g clip-path="url(#clip0_0_134)">
<path d="M2.54346 0.378174C1.38862 0.378174 0.43042 1.33637 0.43042 2.49122V21.5086C0.43042 22.6635 1.38862 23.6217 2.54346 23.6217H21.5609C22.7157 23.6217 23.6739 22.6635 23.6739 21.5086V2.49122C23.6739 1.33637 22.7157 0.378174 21.5609 0.378174H2.54346ZM2.54346 2.49122H21.5609V21.5086H16.0801V14.3771H18.8205L19.2167 11.2075H16.0801V9.16051C16.0801 8.23711 16.3081 7.60874 17.6319 7.60874H19.3488V4.73633C19.0561 4.69723 18.0389 4.63728 16.8725 4.63728C14.4383 4.63728 12.7785 6.10135 12.7785 8.83035V11.2075H10.0051V14.3771H12.7785V21.5086H2.54346V2.49122Z" fill="#EC1354"/>
</g>
<defs>
<clipPath id="clip0_0_134">
<rect width="24" height="24" fill="white"/>
</clipPath>
</defs>
</svg>
