<svg width="24" height="24" viewBox="0 0 24 24" fill="none" xmlns="http://www.w3.org/2000/svg">
<path d="M16.3467 21.0966C15.6134 21.0912 14.8834 20.9991 14.1717 20.8224C11.7141 20.2294 9.18328 18.7252 7.04672 16.5868C4.91015 14.4483 3.40406 11.9171 2.81109 9.46177C2.18671 6.87896 2.63203 4.66927 4.06359 3.23771L4.47234 2.82896C4.8432 2.45884 5.34574 2.25098 5.86968 2.25098C6.39363 2.25098 6.89617 2.45884 7.26703 2.82896L9.61593 5.17739C9.98628 5.54813 10.1943 6.05072 10.1943 6.57474C10.1943 7.09876 9.98628 7.60135 9.61593 7.97208L8.22843 9.35911C8.89359 10.5263 9.79828 11.6944 10.8675 12.7636C11.9367 13.8329 13.1058 14.738 14.2725 15.4032L15.6595 14.0157C15.843 13.8321 16.0608 13.6865 16.3006 13.5872C16.5404 13.4879 16.7973 13.4367 17.0569 13.4367C17.3164 13.4367 17.5734 13.4879 17.8131 13.5872C18.0529 13.6865 18.2707 13.8321 18.4542 14.0157L20.8027 16.3641C21.1731 16.7347 21.3812 17.2372 21.3812 17.7612C21.3812 18.2852 21.1731 18.7877 20.8027 19.1583L20.3934 19.5671C19.3842 20.5782 17.9873 21.0966 16.3467 21.0966ZM5.86968 3.6563C5.79484 3.65593 5.72068 3.6705 5.65154 3.69915C5.58239 3.72781 5.51967 3.76997 5.46703 3.82317L5.05781 4.23192C3.98578 5.30396 3.67265 7.04442 4.17609 9.12989C4.70906 11.3391 6.08109 13.6346 8.03906 15.5921C9.99703 17.5496 12.292 18.9202 14.5017 19.455C16.5877 19.9585 18.3272 19.6454 19.3992 18.5733L19.808 18.1646C19.9148 18.0577 19.9748 17.9128 19.9748 17.7617C19.9748 17.6106 19.9148 17.4657 19.808 17.3588L17.46 15.0104C17.3531 14.9036 17.2082 14.8436 17.0571 14.8436C16.906 14.8436 16.7611 14.9036 16.6542 15.0104L14.8959 16.7686C14.7904 16.8742 14.6541 16.9435 14.5066 16.9664C14.3591 16.9893 14.2082 16.9647 14.0756 16.8961C12.6342 16.1508 11.1811 15.0657 9.87328 13.7579C8.56547 12.45 7.48265 10.9979 6.73547 9.55646C6.66685 9.42394 6.64217 9.27302 6.66501 9.12555C6.68785 8.97808 6.75701 8.8417 6.8625 8.73614L8.62125 6.97786C8.72804 6.87098 8.78804 6.72607 8.78804 6.57497C8.78804 6.42388 8.72804 6.27896 8.62125 6.17208L6.27281 3.82317C6.22 3.77006 6.15718 3.72796 6.08798 3.69932C6.01878 3.67067 5.94458 3.65605 5.86968 3.6563Z" fill="#EC1354"/>
<path d="M17.0977 12.644C16.9112 12.644 16.7323 12.5699 16.6005 12.4381C16.4686 12.3062 16.3945 12.1274 16.3945 11.9409C16.3932 10.7074 15.9026 9.5248 15.0304 8.65254C14.1582 7.78027 12.9757 7.28957 11.7422 7.28809C11.5557 7.28809 11.3769 7.21401 11.245 7.08215C11.1131 6.95028 11.0391 6.77144 11.0391 6.58496C11.0391 6.39848 11.1131 6.21964 11.245 6.08778C11.3769 5.95592 11.5557 5.88184 11.7422 5.88184C15.083 5.88184 17.8008 8.60059 17.8008 11.9409C17.8008 12.1274 17.7267 12.3062 17.5948 12.4381C17.463 12.5699 17.2841 12.644 17.0977 12.644Z" fill="#EC1354"/>
<path d="M20.0695 12.6432C19.883 12.6432 19.7042 12.5692 19.5723 12.4373C19.4405 12.3054 19.3664 12.1266 19.3664 11.9401C19.3664 7.7359 15.9445 4.31543 11.7422 4.31543C11.5557 4.31543 11.3769 4.24135 11.245 4.10949C11.1131 3.97763 11.0391 3.79878 11.0391 3.6123C11.0391 3.42582 11.1131 3.24698 11.245 3.11512C11.3769 2.98326 11.5557 2.90918 11.7422 2.90918C16.7217 2.90918 20.7727 6.96059 20.7727 11.9401C20.7727 12.1266 20.6986 12.3054 20.5667 12.4373C20.4349 12.5692 20.256 12.6432 20.0695 12.6432Z" fill="#EC1354"/>
</svg>
