<svg width="24" height="24" viewBox="0 0 24 24" fill="none" xmlns="http://www.w3.org/2000/svg">
<path d="M3.40337 1.43457C2.35351 1.43457 1.48242 2.30566 1.48242 3.35552V20.6441C1.48242 21.6939 2.35351 22.565 3.40337 22.565H20.6919C21.7418 22.565 22.6129 21.6939 22.6129 20.6441V3.35552C22.6129 2.30566 21.7418 1.43457 20.6919 1.43457H3.40337ZM3.40337 3.35552H20.6919V20.6441H15.7094V14.1609H18.2007L18.5609 11.2794H15.7094V9.41851C15.7094 8.57906 15.9167 8.00782 17.1201 8.00782H18.6809V5.39653C18.4149 5.36099 17.4902 5.30648 16.4298 5.30648C14.2169 5.30648 12.708 6.63746 12.708 9.11837V11.2794H10.1867V14.1609H12.708V20.6441H3.40337V3.35552Z" fill="#EC1354"/>
</svg>
