<svg width="24" height="24" viewBox="0 0 24 24" fill="none" xmlns="http://www.w3.org/2000/svg">
<path d="M22.7225 4.51685H1.28618H1.10027H0.649099H0.338318V19.4505H23.6719V4.51685H22.8648H22.7225ZM21.7892 5.45022L12.7748 14.4646C12.3637 14.8757 11.6463 14.8757 11.2353 14.4646L2.21951 5.45022H21.7892ZM1.2716 5.82203L7.33193 11.8815L1.2716 17.9418V5.82203ZM2.01626 18.517L7.9923 12.5418L10.5754 15.1245C10.9569 15.5065 11.465 15.717 12.005 15.717C12.5451 15.717 13.0532 15.5065 13.4347 15.1245L16.0178 12.5414L21.9933 18.517H2.01626ZM22.7385 17.9423L16.6781 11.8815L22.7385 5.82072V17.9423H22.7385Z" fill="#EC1354" stroke="#EC1354" stroke-width="0.5"/>
</svg>
