<svg width="24" height="24" viewBox="0 0 24 24" fill="none" xmlns="http://www.w3.org/2000/svg">
<g clip-path="url(#clip0_0_96)">
<path d="M23.6721 12.0471C23.6721 13.6784 23.6393 15.3143 23.6814 16.9456C23.7518 19.8331 21.9377 22.0643 19.6268 23.0581C18.6986 23.4565 17.7236 23.6674 16.7158 23.6674C13.5611 23.6721 10.4018 23.7143 7.24707 23.6534C4.87051 23.6065 2.91582 22.6128 1.51426 20.6534C0.77832 19.6221 0.426758 18.4503 0.426758 17.1799C0.426758 13.819 0.426758 10.4628 0.426758 7.10183C0.426758 4.35964 1.7627 2.44245 4.13457 1.19558C5.16582 0.656513 6.28613 0.426826 7.45332 0.422138C10.5143 0.422138 13.5799 0.403388 16.6408 0.431513C19.0174 0.450263 21.0002 1.35964 22.4627 3.27214C23.2783 4.34089 23.6721 5.56901 23.6721 6.91901C23.6721 8.62526 23.6721 10.3362 23.6721 12.0471ZM2.15645 12.0471C2.15645 13.7674 2.15645 15.4831 2.15645 17.2034C2.15645 17.9721 2.33457 18.694 2.73301 19.3456C3.77832 21.0565 5.35801 21.8909 7.31738 21.9237C10.4627 21.9706 13.6127 21.9424 16.7627 21.9331C17.5361 21.9331 18.2861 21.7737 18.9846 21.4409C20.8877 20.5315 21.9518 19.0831 21.9424 16.9081C21.9236 13.58 21.9377 10.2518 21.9377 6.9237C21.9377 5.98151 21.6705 5.11901 21.1127 4.35964C20.0346 2.90183 18.5439 2.18464 16.7627 2.16589C13.6221 2.12839 10.4814 2.15183 7.34082 2.15651C6.67051 2.15651 6.02363 2.29245 5.39551 2.52683C3.67051 3.16901 2.06738 4.79558 2.14238 7.19089C2.19863 8.81276 2.15645 10.4299 2.15645 12.0471Z" fill="#EC1354"/>
<path d="M12.075 17.0156C9.05157 17.0156 6.61407 14.6063 6.60938 11.6063C6.60469 8.65313 9.06094 6.23438 12.0656 6.23438C15.0797 6.22969 17.5266 8.64376 17.5313 11.6203C17.5313 14.5922 15.0891 17.0109 12.075 17.0156ZM12.075 15.2813C14.1328 15.2813 15.8016 13.6359 15.7969 11.6109C15.7922 9.60469 14.1234 7.96407 12.075 7.96407C10.0172 7.96407 8.33907 9.60001 8.33907 11.6203C8.34376 13.6453 10.0172 15.2859 12.075 15.2813Z" fill="#EC1354"/>
<path d="M18.1643 4.59375C18.7971 4.59375 19.3127 5.13281 19.3127 5.79375C19.308 6.45469 18.7877 6.98906 18.1549 6.98438C17.5315 6.97969 17.0205 6.44531 17.0205 5.79844C17.0159 5.1375 17.5315 4.59375 18.1643 4.59375Z" fill="#EC1354"/>
</g>
<defs>
<clipPath id="clip0_0_96">
<rect width="24" height="24" fill="white"/>
</clipPath>
</defs>
</svg>
