<svg width="171" height="79" viewBox="0 0 171 79" fill="none" xmlns="http://www.w3.org/2000/svg">
<path d="M2.35042 78.5261C2.05986 78.9958 1.44357 79.141 0.973894 78.8504C0.50422 78.5599 0.359021 77.9436 0.649581 77.4739L2.35042 78.5261ZM170.14 6.23156C170.564 6.58498 170.622 7.21552 170.268 7.63992L164.509 14.5559C164.156 14.9803 163.525 15.0378 163.101 14.6844C162.676 14.331 162.619 13.7004 162.972 13.276L168.092 7.12852L161.944 2.00915C161.52 1.65573 161.462 1.02519 161.816 0.600793C162.169 0.176393 162.8 0.118852 163.224 0.472268L170.14 6.23156ZM1.5 78C0.649581 77.4739 0.64963 77.4738 0.649681 77.4737C0.649701 77.4737 0.649754 77.4736 0.649793 77.4736C0.649872 77.4734 0.649958 77.4733 0.650053 77.4731C0.650242 77.4728 0.650464 77.4725 0.650718 77.4721C0.651226 77.4712 0.651864 77.4702 0.65263 77.469C0.654164 77.4665 0.656216 77.4632 0.65879 77.4591C0.663936 77.4509 0.671169 77.4394 0.680512 77.4247C0.699198 77.3953 0.726326 77.3529 0.762094 77.2979C0.833629 77.1881 0.939724 77.0279 1.08196 76.8204C1.36644 76.4053 1.79548 75.8006 2.38176 75.0292L3.97404 76.2395C3.40802 76.9842 2.99812 77.5623 2.73172 77.951C2.59852 78.1454 2.50119 78.2924 2.43817 78.3892C2.40665 78.4376 2.38372 78.4734 2.36916 78.4964C2.36188 78.5078 2.35669 78.5161 2.35358 78.5211C2.35202 78.5235 2.35098 78.5252 2.35046 78.526C2.35019 78.5265 2.35006 78.5267 2.35005 78.5267C2.35005 78.5267 2.35008 78.5267 2.35014 78.5266C2.35017 78.5265 2.35021 78.5264 2.35026 78.5264C2.35028 78.5263 2.35032 78.5263 2.35033 78.5262C2.35037 78.5262 2.35042 78.5261 1.5 78ZM6.15953 70.471C7.31237 69.1783 8.66237 67.7381 10.2245 66.1776L11.638 67.5925C10.1036 69.1254 8.77991 70.5376 7.65215 71.8022L6.15953 70.471ZM14.4929 62.1203C15.8671 60.8749 17.3562 59.5791 18.9659 58.2431L20.2433 59.782C18.6561 61.0994 17.1888 62.3761 15.8359 63.6022L14.4929 62.1203ZM23.5669 54.5769C25.059 53.4347 26.6344 52.2716 28.2963 51.093L29.4533 52.7244C27.8114 53.8889 26.2555 55.0375 24.7826 56.165L23.5669 54.5769ZM33.1529 47.7731C34.7396 46.7273 36.3937 45.6736 38.1171 44.6155L39.1635 46.3199C37.4584 47.3668 35.8224 48.409 34.2535 49.443L33.1529 47.7731ZM43.1762 41.6153C44.8341 40.6655 46.5489 39.7148 48.3218 38.766L49.2656 40.5293C47.5096 41.4691 45.8116 42.4104 44.1703 43.3507L43.1762 41.6153ZM53.5493 36.0605C55.2684 35.2003 57.037 34.3435 58.8561 33.492L59.7039 35.3034C57.9006 36.1475 56.1477 36.9967 54.4443 37.8491L53.5493 36.0605ZM64.2135 31.0661C65.9653 30.2989 67.7601 29.5377 69.5988 28.784L70.3573 30.6346C68.5333 31.3823 66.7531 32.1373 65.0159 32.8981L64.2135 31.0661ZM75.0539 26.6208C76.8575 25.9292 78.7003 25.2453 80.583 24.5705L81.2578 26.4532C79.3889 27.1231 77.5598 27.8018 75.77 28.4882L75.0539 26.6208ZM86.13 22.6484C87.9494 22.0391 89.8038 21.4386 91.6936 20.8479L92.2903 22.7568C90.4133 23.3436 88.5717 23.9399 86.765 24.5449L86.13 22.6484ZM97.3371 19.1444C99.1866 18.6057 101.068 18.0765 102.982 17.5577L103.505 19.488C101.603 20.0036 99.7339 20.5294 97.8965 21.0646L97.3371 19.1444ZM108.644 16.0774C110.533 15.6018 112.451 15.1363 114.399 14.6816L114.854 16.6293C112.917 17.0813 111.01 17.5441 109.133 18.0168L108.644 16.0774ZM120.072 13.4079C121.968 12.9985 123.892 12.5994 125.844 12.2112L126.234 14.1727C124.293 14.5589 122.38 14.9558 120.494 15.3629L120.072 13.4079ZM131.587 11.1151C133.49 10.7672 135.418 10.4297 137.372 10.1029L137.702 12.0755C135.758 12.4006 133.84 12.7365 131.947 13.0825L131.587 11.1151ZM143.166 9.17759C145.075 8.88681 147.008 8.6063 148.965 8.33648L149.238 10.3177C147.29 10.5863 145.367 10.8654 143.467 11.1548L143.166 9.17759ZM154.788 7.57413C156.705 7.33645 158.644 7.10897 160.605 6.89206L160.825 8.87994C158.872 9.09588 156.942 9.32234 155.034 9.55893L154.788 7.57413ZM166.442 6.28438C167.426 6.18831 168.415 6.09489 169.409 6.00414L169.591 7.99587C168.601 8.08623 167.616 8.17925 166.636 8.27491L166.442 6.28438ZM2.35042 78.5261C2.05986 78.9958 1.44357 79.141 0.973894 78.8504C0.50422 78.5599 0.359021 77.9436 0.649581 77.4739L2.35042 78.5261ZM170.14 6.23156C170.564 6.58498 170.622 7.21552 170.268 7.63992L164.509 14.5559C164.156 14.9803 163.525 15.0378 163.101 14.6844C162.676 14.331 162.619 13.7004 162.972 13.276L168.092 7.12852L161.944 2.00915C161.52 1.65573 161.462 1.02519 161.816 0.600793C162.169 0.176393 162.8 0.118852 163.224 0.472268L170.14 6.23156ZM1.5 78C0.649581 77.4739 0.64963 77.4738 0.649681 77.4737C0.649701 77.4737 0.649754 77.4736 0.649793 77.4736C0.649872 77.4734 0.649958 77.4733 0.650053 77.4731C0.650242 77.4728 0.650464 77.4725 0.650718 77.4721C0.651226 77.4712 0.651864 77.4702 0.65263 77.469C0.654164 77.4665 0.656216 77.4632 0.65879 77.4591C0.663936 77.4509 0.671169 77.4394 0.680512 77.4247C0.699198 77.3953 0.726326 77.3529 0.762094 77.2979C0.833629 77.1881 0.939724 77.0279 1.08196 76.8204C1.36644 76.4053 1.79548 75.8006 2.38176 75.0292L3.97404 76.2395C3.40802 76.9842 2.99812 77.5623 2.73172 77.951C2.59852 78.1454 2.50119 78.2924 2.43817 78.3892C2.40665 78.4376 2.38372 78.4734 2.36916 78.4964C2.36188 78.5078 2.35669 78.5161 2.35358 78.5211C2.35202 78.5235 2.35098 78.5252 2.35046 78.526C2.35019 78.5265 2.35006 78.5267 2.35005 78.5267C2.35005 78.5267 2.35008 78.5267 2.35014 78.5266C2.35017 78.5265 2.35021 78.5264 2.35026 78.5264C2.35028 78.5263 2.35032 78.5263 2.35033 78.5262C2.35037 78.5262 2.35042 78.5261 1.5 78ZM6.15953 70.471C7.31237 69.1783 8.66237 67.7381 10.2245 66.1776L11.638 67.5925C10.1036 69.1254 8.77991 70.5376 7.65215 71.8022L6.15953 70.471ZM14.4929 62.1203C15.8671 60.8749 17.3562 59.5791 18.9659 58.2431L20.2433 59.782C18.6561 61.0994 17.1888 62.3761 15.8359 63.6022L14.4929 62.1203ZM23.5669 54.5769C25.059 53.4347 26.6344 52.2716 28.2963 51.093L29.4533 52.7244C27.8114 53.8889 26.2555 55.0375 24.7826 56.165L23.5669 54.5769ZM33.1529 47.7731C34.7396 46.7273 36.3937 45.6736 38.1171 44.6155L39.1635 46.3199C37.4584 47.3668 35.8224 48.409 34.2535 49.443L33.1529 47.7731ZM43.1762 41.6153C44.8341 40.6655 46.5489 39.7148 48.3218 38.766L49.2656 40.5293C47.5096 41.4691 45.8116 42.4104 44.1703 43.3507L43.1762 41.6153ZM53.5493 36.0605C55.2684 35.2003 57.037 34.3435 58.8561 33.492L59.7039 35.3034C57.9006 36.1475 56.1477 36.9967 54.4443 37.8491L53.5493 36.0605ZM64.2135 31.0661C65.9653 30.2989 67.7601 29.5377 69.5988 28.784L70.3573 30.6346C68.5333 31.3823 66.7531 32.1373 65.0159 32.8981L64.2135 31.0661ZM75.0539 26.6208C76.8575 25.9292 78.7003 25.2453 80.583 24.5705L81.2578 26.4532C79.3889 27.1231 77.5598 27.8018 75.77 28.4882L75.0539 26.6208ZM86.13 22.6484C87.9494 22.0391 89.8038 21.4386 91.6936 20.8479L92.2903 22.7568C90.4133 23.3436 88.5717 23.9399 86.765 24.5449L86.13 22.6484ZM97.3371 19.1444C99.1866 18.6057 101.068 18.0765 102.982 17.5577L103.505 19.488C101.603 20.0036 99.7339 20.5294 97.8965 21.0646L97.3371 19.1444ZM108.644 16.0774C110.533 15.6018 112.451 15.1363 114.399 14.6816L114.854 16.6293C112.917 17.0813 111.01 17.5441 109.133 18.0168L108.644 16.0774ZM120.072 13.4079C121.968 12.9985 123.892 12.5994 125.844 12.2112L126.234 14.1727C124.293 14.5589 122.38 14.9558 120.494 15.3629L120.072 13.4079ZM131.587 11.1151C133.49 10.7672 135.418 10.4297 137.372 10.1029L137.702 12.0755C135.758 12.4006 133.84 12.7365 131.947 13.0825L131.587 11.1151ZM143.166 9.17759C145.075 8.88681 147.008 8.6063 148.965 8.33648L149.238 10.3177C147.29 10.5863 145.367 10.8654 143.467 11.1548L143.166 9.17759ZM154.788 7.57413C156.705 7.33645 158.644 7.10897 160.605 6.89206L160.825 8.87994C158.872 9.09588 156.942 9.32234 155.034 9.55893L154.788 7.57413ZM166.442 6.28438C167.426 6.18831 168.415 6.09489 169.409 6.00414L169.591 7.99587C168.601 8.08623 167.616 8.17925 166.636 8.27491L166.442 6.28438Z" fill="white"/>
</svg>
