<svg width="24" height="25" viewBox="0 0 24 25" fill="none" xmlns="http://www.w3.org/2000/svg">
<path d="M15 23.7263H9C3.57 23.7263 1.25 21.4063 1.25 15.9763V9.97632C1.25 4.54632 3.57 2.22632 9 2.22632H15C20.43 2.22632 22.75 4.54632 22.75 9.97632V15.9763C22.75 21.4063 20.43 23.7263 15 23.7263ZM9 3.72632C4.39 3.72632 2.75 5.36632 2.75 9.97632V15.9763C2.75 20.5863 4.39 22.2263 9 22.2263H15C19.61 22.2263 21.25 20.5863 21.25 15.9763V9.97632C21.25 5.36632 19.61 3.72632 15 3.72632H9Z" fill="white"/>
<path d="M10.58 16.5563C10.38 16.5563 10.19 16.4763 10.05 16.3363L7.22 13.5063C6.93 13.2163 6.93 12.7363 7.22 12.4463C7.51 12.1563 7.99 12.1563 8.28 12.4463L10.58 14.7463L15.72 9.60629C16.01 9.31629 16.49 9.31629 16.78 9.60629C17.07 9.89629 17.07 10.3763 16.78 10.6663L11.11 16.3363C10.97 16.4763 10.78 16.5563 10.58 16.5563Z" fill="white"/>
</svg>
